<svg width="27" height="27" viewBox="0 0 27 27" fill="none" xmlns="http://www.w3.org/2000/svg">
<path d="M22.5 16.8749V8.43736L15.4687 4.48242M11.5312 4.48242L4.5 8.43736V16.8749M6.1875 19.5119L13.5 23.6249L18 21.0936L20.8125 19.5119" stroke="white" stroke-width="2" stroke-linecap="round" stroke-linejoin="round"/>
<path d="M11.8125 10.5469L10.125 11.5312V15.4687L11.8125 16.4531L13.5 17.4375L15.1875 16.4531L16.875 15.4687V11.5312L15.1875 10.5469L13.5 9.5625L11.8125 10.5469Z" fill="white" stroke="white" stroke-width="2" stroke-linecap="round" stroke-linejoin="round"/>
<path d="M13.5 9.5625V5.625M16.875 15.1875L20.8125 17.4375M10.125 15.1875L6.1875 17.4375" stroke="white" stroke-width="2" stroke-linecap="round" stroke-linejoin="round"/>
<path d="M13.5 5.625C14.432 5.625 15.1875 4.86948 15.1875 3.9375C15.1875 3.00552 14.432 2.25 13.5 2.25C12.568 2.25 11.8125 3.00552 11.8125 3.9375C11.8125 4.86948 12.568 5.625 13.5 5.625Z" fill="white" stroke="white" stroke-width="2" stroke-linecap="round" stroke-linejoin="round"/>
<path d="M4.5 20.25C5.43198 20.25 6.1875 19.4945 6.1875 18.5625C6.1875 17.6305 5.43198 16.875 4.5 16.875C3.56802 16.875 2.8125 17.6305 2.8125 18.5625C2.8125 19.4945 3.56802 20.25 4.5 20.25Z" fill="white" stroke="white" stroke-width="2" stroke-linecap="round" stroke-linejoin="round"/>
<path d="M22.5 20.25C23.432 20.25 24.1875 19.4945 24.1875 18.5625C24.1875 17.6305 23.432 16.875 22.5 16.875C21.568 16.875 20.8125 17.6305 20.8125 18.5625C20.8125 19.4945 21.568 20.25 22.5 20.25Z" fill="white" stroke="white" stroke-width="2" stroke-linecap="round" stroke-linejoin="round"/>
</svg>
