<svg width="27" height="27" viewBox="0 0 27 27" fill="none" xmlns="http://www.w3.org/2000/svg">
<path d="M19.5972 3.375C19.9938 3.37513 20.3833 3.48008 20.7262 3.67922C21.0692 3.87837 21.3535 4.16463 21.5502 4.509L25.3009 11.07C25.5457 11.4985 25.6428 11.9955 25.5774 12.4846C25.5119 12.9737 25.2875 13.4277 24.9387 13.7768L14.4953 24.2201C14.3647 24.3507 14.2097 24.4544 14.039 24.5251C13.8684 24.5958 13.6855 24.6321 13.5008 24.6321C13.3161 24.6321 13.1332 24.5958 12.9626 24.5251C12.7919 24.4544 12.6369 24.3507 12.5063 24.2201L2.06291 13.7768C1.71407 13.4277 1.48964 12.9737 1.42418 12.4846C1.35873 11.9955 1.45587 11.4985 1.70066 11.07L5.45029 4.50788C5.64705 4.16388 5.93117 3.87795 6.27392 3.67902C6.61666 3.48009 7.00587 3.37521 7.40216 3.375H19.5972ZM16.8747 6.75H10.1247C9.83792 6.75032 9.56213 6.86011 9.35362 7.05695C9.14512 7.25379 9.01965 7.52282 9.00284 7.80907C8.98604 8.09532 9.07917 8.37718 9.26321 8.59706C9.44725 8.81695 9.70831 8.95826 9.99304 8.99213L10.1247 9H12.3747V10.7381C11.5219 10.8169 10.7468 10.9823 10.1202 11.2174C9.67579 11.3839 9.27754 11.5954 8.98054 11.8598C8.68354 12.1241 8.43716 12.4864 8.43716 12.9375C8.43716 13.3886 8.68354 13.752 8.98054 14.0153C9.27754 14.2796 9.67579 14.4911 10.1202 14.6565C10.7884 14.9074 11.6254 15.0806 12.5468 15.1515C12.4579 15.2933 12.4018 15.4532 12.3825 15.6195L12.3747 15.75V18C12.375 18.2867 12.4848 18.5625 12.6816 18.771C12.8785 18.9795 13.1475 19.105 13.4337 19.1218C13.72 19.1386 14.0018 19.0455 14.2217 18.8615C14.4416 18.6774 14.5829 18.4164 14.6168 18.1316L14.6247 18V15.75C14.6248 15.5383 14.5651 15.3308 14.4525 15.1515C15.3739 15.0806 16.2109 14.9085 16.8792 14.6565C17.3235 14.4911 17.7218 14.2796 18.0188 14.0153C18.3158 13.7509 18.5622 13.3886 18.5622 12.9375C18.5622 12.4864 18.3158 12.123 18.0188 11.8598C17.7218 11.5954 17.3235 11.3839 16.8792 11.2185C16.2671 10.999 15.6318 10.8511 14.9858 10.7775L14.6247 10.7381V9H16.8747C17.1614 8.99968 17.4372 8.88989 17.6457 8.69305C17.8542 8.49621 17.9797 8.22718 17.9965 7.94093C18.0133 7.65468 17.9202 7.37282 17.7361 7.15294C17.5521 6.93305 17.291 6.79174 17.0063 6.75788L16.8747 6.75ZM14.6235 11.8688C15.2581 11.9246 15.8832 12.0596 16.4843 12.2704C16.8544 12.4099 17.1143 12.5618 17.2718 12.7013C17.3402 12.7538 17.3943 12.8227 17.4293 12.9015L17.4372 12.9375L17.4293 12.9735C17.3943 13.0523 17.3402 13.1212 17.2718 13.1738C17.1143 13.3133 16.8544 13.4663 16.4843 13.6035C15.7474 13.8803 14.6922 14.0625 13.4997 14.0625C12.3072 14.0625 11.2519 13.8803 10.515 13.6035C10.1449 13.4651 9.88504 13.3133 9.72641 13.1738C9.65805 13.1212 9.60391 13.0523 9.56891 12.9735L9.56216 12.9375C9.56216 12.9229 9.56779 12.8419 9.72641 12.7013C9.88504 12.5606 10.1449 12.4088 10.515 12.2715C11.01 12.0859 11.6479 11.9419 12.3758 11.8688C12.3887 12.1581 12.5128 12.4313 12.7222 12.6315C12.9315 12.8317 13.21 12.9435 13.4997 12.9435C13.7893 12.9435 14.0678 12.8317 14.2772 12.6315C14.4865 12.4313 14.6106 12.1581 14.6235 11.8688Z" fill="white"/>
</svg>
