<svg width="24" height="24" viewBox="0 0 24 24" fill="none" xmlns="http://www.w3.org/2000/svg">
<mask id="mask0_10302_10392" style="mask-type:alpha" maskUnits="userSpaceOnUse" x="0" y="0" width="24" height="24">
<rect width="24" height="24" fill="#D9D9D9"/>
</mask>
<g mask="url(#mask0_10302_10392)">
<path d="M18.723 9.26452L12.5172 15.7871C12.4433 15.8645 12.3632 15.9194 12.277 15.9516C12.1909 15.9839 12.0985 16 12 16C11.9015 16 11.8091 15.9839 11.723 15.9516C11.6368 15.9194 11.5567 15.8645 11.4828 15.7871L5.25858 9.26452C5.08619 9.08387 5 8.85806 5 8.5871C5 8.31613 5.09235 8.08387 5.27704 7.89032C5.46174 7.69677 5.67722 7.6 5.92348 7.6C6.16974 7.6 6.38522 7.69677 6.56992 7.89032L12 13.5806L17.4301 7.89032C17.6025 7.70968 17.8149 7.61936 18.0673 7.61936C18.3197 7.61936 18.5383 7.71613 18.723 7.90968C18.9077 8.10323 19 8.32903 19 8.5871C19 8.84516 18.9077 9.07097 18.723 9.26452Z" fill="#969696"/>
</g>
</svg>
