<svg width="25" height="25" viewBox="0 0 25 25" fill="none" xmlns="http://www.w3.org/2000/svg">
<mask id="mask0_6835_16556" style="mask-type:alpha" maskUnits="userSpaceOnUse" x="0" y="0" width="25" height="25">
<rect x="0.870117" y="0.5" width="24" height="24" fill="#D9D9D9"/>
</mask>
<g mask="url(#mask0_6835_16556)">
<path d="M19.5931 9.76452L13.3873 16.2871C13.3134 16.3645 13.2334 16.4194 13.1472 16.4516C13.061 16.4839 12.9686 16.5 12.8701 16.5C12.7716 16.5 12.6793 16.4839 12.5931 16.4516C12.5069 16.4194 12.4268 16.3645 12.353 16.2871L6.12869 9.76452C5.95631 9.58387 5.87012 9.35806 5.87012 9.0871C5.87012 8.81613 5.96247 8.58387 6.14716 8.39032C6.33186 8.19677 6.54734 8.1 6.7936 8.1C7.03986 8.1 7.25534 8.19677 7.44004 8.39032L12.8701 14.0806L18.3002 8.39032C18.4726 8.20968 18.685 8.11936 18.9374 8.11936C19.1898 8.11936 19.4084 8.21613 19.5931 8.40968C19.7778 8.60323 19.8701 8.82903 19.8701 9.0871C19.8701 9.34516 19.7778 9.57097 19.5931 9.76452Z" fill="white"/>
</g>
</svg>
