<svg width="42" height="42" viewBox="0 0 42 42" fill="none" xmlns="http://www.w3.org/2000/svg">
<rect width="42" height="42" rx="7" fill="#3C3C3C"/>
<path d="M35.7181 6.54003C35.7059 6.4813 35.6773 6.42724 35.6356 6.3842C35.5938 6.34115 35.5406 6.3109 35.4823 6.29698C31.5929 5.34605 22.6061 8.73476 17.7372 13.6017C16.8688 14.4631 16.0771 15.3985 15.3712 16.3974C13.8697 16.2646 12.3683 16.3755 11.0886 16.9333C7.47813 18.5224 6.42692 22.6688 6.13407 24.4525C6.11746 24.5501 6.12372 24.6502 6.15237 24.745C6.18102 24.8398 6.23128 24.9267 6.29918 24.9988C6.36708 25.0709 6.45078 25.1262 6.5437 25.1605C6.63661 25.1947 6.73621 25.207 6.83466 25.1962L12.6326 24.5567C12.6367 24.9938 12.6631 25.4305 12.7116 25.8649C12.7408 26.1666 12.8747 26.4486 13.0901 26.6618L15.3353 28.9017C15.5488 29.1168 15.8306 29.2506 16.1322 29.2802C16.5642 29.3285 16.9984 29.3548 17.4331 29.3592L16.7969 35.1498C16.7863 35.2483 16.7986 35.3478 16.8329 35.4406C16.8673 35.5335 16.9226 35.6171 16.9947 35.685C17.0667 35.7529 17.1535 35.8031 17.2482 35.8318C17.343 35.8605 17.4431 35.8669 17.5407 35.8504C19.321 35.5649 23.4747 34.5137 25.0545 30.9032C25.6124 29.6235 25.7266 28.1294 25.5977 26.6352C26.599 25.9292 27.5369 25.1373 28.4008 24.2685C33.2849 19.4089 36.6544 10.6227 35.7181 6.54003ZM23.5279 18.4712C23.0819 18.0255 22.7781 17.4576 22.6549 16.8392C22.5318 16.2208 22.5948 15.5798 22.836 14.9973C23.0772 14.4147 23.4857 13.9168 24.0099 13.5664C24.5342 13.2161 25.1505 13.0291 25.781 13.0291C26.4115 13.0291 27.0279 13.2161 27.5521 13.5664C28.0763 13.9168 28.4849 14.4147 28.7261 14.9973C28.9673 15.5798 29.0303 16.2208 28.9071 16.8392C28.784 17.4576 28.4802 18.0255 28.0342 18.4712C27.7384 18.7674 27.3872 19.0024 27.0006 19.1627C26.614 19.323 26.1996 19.4055 25.781 19.4055C25.3625 19.4055 24.9481 19.323 24.5614 19.1627C24.1748 19.0024 23.8236 18.7674 23.5279 18.4712Z" fill="#111111"/>
<path d="M15.1828 30.5247C14.8189 30.8892 14.2352 31.0313 13.5326 31.1529C11.9541 31.4218 10.5603 30.0578 10.8438 28.4621C10.9521 27.8571 11.2721 27.0091 11.4714 26.8099C11.5149 26.7672 11.5439 26.7118 11.5542 26.6517C11.5645 26.5916 11.5556 26.5298 11.5288 26.475C11.5019 26.4202 11.4585 26.3753 11.4047 26.3466C11.3509 26.3179 11.2894 26.3069 11.229 26.3152C10.3463 26.4232 9.52509 26.8234 8.89613 27.452C7.33492 29.0146 7.1875 34.8125 7.1875 34.8125C7.1875 34.8125 12.9888 34.6651 14.55 33.1025C15.1806 32.4741 15.5812 31.6516 15.6875 30.7677C15.7121 30.4901 15.3741 30.3248 15.1828 30.5247Z" fill="#111111"/>
</svg>
