<svg width="64" height="65" viewBox="0 0 64 65" fill="none" xmlns="http://www.w3.org/2000/svg">
<path fill-rule="evenodd" clip-rule="evenodd" d="M26.6648 6.5C25.7813 6.49957 24.9158 6.74994 24.169 7.222C23.4222 7.69406 22.8248 8.36842 22.4461 9.16667C20.6221 9.18267 19.2035 9.26533 17.9341 9.76133C16.4189 10.3541 15.101 11.3614 14.1315 12.668C13.1528 13.9827 12.6915 15.6733 12.0621 17.996L11.9368 18.4493L10.5688 26.3533C10.0764 26.6929 9.64436 27.1009 9.2728 27.5773C6.87013 30.652 8.01413 35.2307 10.3021 44.38C11.7555 50.2013 12.4835 53.1107 14.6541 54.8067C16.8248 56.5 19.8248 56.5 25.8248 56.5H38.1715C44.1715 56.5 47.1715 56.5 49.3421 54.8067C51.5128 53.1107 52.2381 50.2013 53.6941 44.38C55.9821 35.228 57.1261 30.6547 54.7235 27.5773C54.3557 27.1045 53.9178 26.6909 53.4248 26.3507L52.0568 18.452L51.9341 17.9987C51.3021 15.6733 50.8408 13.9827 49.8648 12.6653C48.8949 11.3597 47.5771 10.3533 46.0621 9.76133C44.7928 9.26533 43.3715 9.18267 41.5501 9.16933C41.1719 8.37059 40.5746 7.69568 39.8277 7.22313C39.0809 6.75057 38.2152 6.49981 37.3315 6.5H26.6648ZM49.1128 24.8893L48.1475 19.3213C47.3928 16.548 47.1181 15.676 46.6541 15.052C46.132 14.3483 45.4222 13.8058 44.6061 13.4867C44.0195 13.2573 43.3101 13.1907 41.5448 13.172C41.1658 13.9684 40.5688 14.6411 39.8231 15.1122C39.0774 15.5832 38.2135 15.8332 37.3315 15.8333H26.6648C25.7828 15.8332 24.9189 15.5832 24.1731 15.1122C23.4274 14.6411 22.8305 13.9684 22.4515 13.172C20.6835 13.1907 19.9768 13.2573 19.3901 13.4867C18.574 13.8058 17.8643 14.3483 17.3421 15.052C16.8781 15.676 16.6035 16.5453 15.8488 19.3187L14.8835 24.8893C17.5448 24.5 21.0915 24.5 25.8248 24.5H38.1715C42.9048 24.5 46.4515 24.5 49.1128 24.8893ZM21.3315 33.1667C21.8619 33.1667 22.3706 33.3774 22.7457 33.7525C23.1208 34.1275 23.3315 34.6362 23.3315 35.1667V45.8333C23.3315 46.3638 23.1208 46.8725 22.7457 47.2476C22.3706 47.6226 21.8619 47.8333 21.3315 47.8333C20.801 47.8333 20.2923 47.6226 19.9173 47.2476C19.5422 46.8725 19.3315 46.3638 19.3315 45.8333V35.1667C19.3315 34.6362 19.5422 34.1275 19.9173 33.7525C20.2923 33.3774 20.801 33.1667 21.3315 33.1667ZM44.6648 35.1667C44.6648 34.6362 44.4541 34.1275 44.079 33.7525C43.7039 33.3774 43.1952 33.1667 42.6648 33.1667C42.1344 33.1667 41.6257 33.3774 41.2506 33.7525C40.8755 34.1275 40.6648 34.6362 40.6648 35.1667V45.8333C40.6648 46.3638 40.8755 46.8725 41.2506 47.2476C41.6257 47.6226 42.1344 47.8333 42.6648 47.8333C43.1952 47.8333 43.7039 47.6226 44.079 47.2476C44.4541 46.8725 44.6648 46.3638 44.6648 45.8333V35.1667ZM31.9981 33.1667C32.5286 33.1667 33.0373 33.3774 33.4123 33.7525C33.7874 34.1275 33.9981 34.6362 33.9981 35.1667V45.8333C33.9981 46.3638 33.7874 46.8725 33.4123 47.2476C33.0373 47.6226 32.5286 47.8333 31.9981 47.8333C31.4677 47.8333 30.959 47.6226 30.5839 47.2476C30.2088 46.8725 29.9981 46.3638 29.9981 45.8333V35.1667C29.9981 34.6362 30.2088 34.1275 30.5839 33.7525C30.959 33.3774 31.4677 33.1667 31.9981 33.1667Z" fill="white"/>
</svg>
