<svg width="18" height="19" viewBox="0 0 18 19" fill="none" xmlns="http://www.w3.org/2000/svg">
<path fill-rule="evenodd" clip-rule="evenodd" d="M5.25 2C4.25544 2 3.30161 2.39509 2.59835 3.09835C1.89509 3.80161 1.5 4.75544 1.5 5.75V13.25C1.5 14.2446 1.89509 15.1984 2.59835 15.9017C3.30161 16.6049 4.25544 17 5.25 17H12.75C13.7446 17 14.6984 16.6049 15.4017 15.9017C16.1049 15.1984 16.5 14.2446 16.5 13.25V5.75C16.5 4.75544 16.1049 3.80161 15.4017 3.09835C14.6984 2.39509 13.7446 2 12.75 2H5.25ZM13.4521 7.51443C13.4174 7.60664 13.3649 7.6911 13.2975 7.763L8.98425 12.263C8.85054 12.4054 8.66657 12.4899 8.47147 12.4988C8.27637 12.5076 8.08552 12.44 7.9395 12.3102L5.502 10.0602C5.3609 9.92621 5.27743 9.74258 5.26922 9.54813C5.26101 9.35369 5.3287 9.16367 5.45799 9.01822C5.58729 8.87276 5.76806 8.78326 5.96212 8.76861C6.15619 8.75397 6.34834 8.81534 6.498 8.93975L8.39025 10.7045L12.2025 6.737C12.2699 6.6651 12.3507 6.60718 12.4405 6.56653C12.5302 6.52589 12.6271 6.50332 12.7256 6.50011C12.8241 6.49691 12.9222 6.51313 13.0144 6.54786C13.1066 6.58258 13.1911 6.63513 13.263 6.7025C13.3349 6.76987 13.3928 6.85074 13.4335 6.94049C13.4741 7.03025 13.4967 7.12713 13.4999 7.22561C13.5031 7.32408 13.4869 7.42222 13.4521 7.51443Z" fill="white"/>
</svg>
