<svg width="25" height="25" viewBox="0 0 25 25" fill="none" xmlns="http://www.w3.org/2000/svg">
<g clip-path="url(#clip0_10342_11755)">
<g clip-path="url(#clip1_10342_11755)">
<path d="M14.7088 10.347C14.7418 10.2853 14.776 10.2435 14.7868 10.1729C14.7946 10.122 14.8018 10.073 14.8084 10.0262C14.8117 10.0024 14.825 9.99048 14.8485 9.99032L16.0107 9.98004C16.0228 9.97991 16.0343 9.97495 16.0427 9.96622C16.0512 9.95749 16.056 9.94571 16.056 9.93343V9.7649C16.056 9.75486 16.0608 9.74984 16.0705 9.74984H16.4872C16.4916 9.74985 16.496 9.74893 16.5001 9.74715C16.5041 9.74536 16.5078 9.74275 16.5108 9.73946C16.5139 9.73617 16.5163 9.73228 16.5178 9.72803C16.5193 9.72377 16.52 9.71924 16.5198 9.7147L16.5158 9.62602C16.5153 9.61406 16.5092 9.60801 16.4973 9.60785L16.0916 9.6057C16.0836 9.60565 16.076 9.60267 16.07 9.5973C16.0641 9.59194 16.0603 9.58456 16.0592 9.57653L16.0407 9.4312C16.0403 9.42802 16.0392 9.42498 16.0374 9.42232C16.0357 9.41965 16.0334 9.41743 16.0307 9.41581C16.028 9.4142 16.0249 9.41324 16.0218 9.41301C16.0187 9.41277 16.0155 9.41327 16.0126 9.41446C15.9767 9.42944 15.9508 9.45494 15.935 9.49096C15.9316 9.49893 15.9328 9.50618 15.9385 9.51271L15.9559 9.53231C15.9653 9.54299 15.9629 9.54801 15.9488 9.54737C15.8966 9.54474 15.845 9.55861 15.7979 9.55861C15.1988 9.55892 14.5999 9.55677 14.001 9.55215C13.9421 9.55191 13.7764 9.56554 13.8135 9.49574C13.8174 9.48857 13.8232 9.48402 13.831 9.48211L13.9309 9.45773C13.9395 9.45566 13.9449 9.45024 13.9471 9.44147C13.9951 9.24522 13.9602 9.08124 13.8399 8.91725C13.6557 8.66626 13.4038 8.56132 13.0841 8.60243C12.7735 8.64211 12.6203 8.94331 12.6603 9.24522C12.6613 9.25287 12.6609 9.26052 12.6592 9.26817L12.6442 9.33271C12.6413 9.34482 12.6455 9.35327 12.6566 9.35805L12.7414 9.39534C12.7514 9.39964 12.756 9.40737 12.755 9.41853L12.7496 9.47422C12.7487 9.48375 12.7442 9.49253 12.7369 9.49866C12.7297 9.50479 12.7204 9.50778 12.711 9.50697C12.6109 9.49765 12.5303 9.50434 12.4393 9.55406C12.1604 9.70633 11.9424 9.9908 11.8304 10.2805C11.7837 10.4018 11.7429 10.4903 11.7081 10.5461C11.704 10.5526 11.7013 10.5596 11.7001 10.5669C11.6962 10.5897 11.6869 10.6092 11.6722 10.6255C11.6658 10.6323 11.658 10.6356 11.6488 10.6353C11.5967 10.6326 11.4493 10.6171 11.4292 10.684C11.3981 10.787 11.3631 10.8885 11.3244 10.9886C11.2632 11.1468 11.2171 11.3357 11.1385 11.503C11.1372 11.5058 11.1369 11.509 11.1377 11.5121C11.1385 11.5151 11.1404 11.5176 11.143 11.5192C11.2027 11.5573 11.2629 11.596 11.3237 11.6352C11.409 11.6902 11.2911 11.9196 11.2522 11.9906C11.2386 12.0153 11.2155 12.0416 11.1828 12.0695C11.0996 12.1406 11.0524 12.2337 11.0413 12.3487C11.0405 12.3562 11.0379 12.3629 11.0335 12.3688C10.9763 12.4472 10.9576 12.5251 10.9264 12.6157C10.8995 12.6941 10.7961 12.654 10.7319 12.7023C10.7253 12.7071 10.7218 12.7136 10.7213 12.7219C10.7021 13.0625 10.6836 13.4017 10.6185 13.7376C10.5985 13.8408 10.4565 13.9295 10.3963 13.9993C10.2519 14.1667 10.1342 14.3553 10.0431 14.5654C9.93604 14.8126 9.80963 15.0879 9.66385 15.3915C9.60354 15.5169 9.57744 15.6632 9.58557 15.8304C9.59377 16.0037 9.39877 16.1161 9.37908 16.2941C9.3783 16.3015 9.3801 16.3082 9.38447 16.3142L9.45408 16.4077C9.45971 16.4153 9.46721 16.4192 9.47658 16.4192C9.6383 16.4193 9.8001 16.4192 9.96197 16.4189C10.0283 16.4189 10.0888 16.368 10.1063 16.3025C10.1392 16.1789 10.1431 16.0467 10.1556 15.9198C10.1596 15.8811 10.1476 15.7859 10.1837 15.7427C10.5617 15.2878 10.941 14.8342 11.3218 14.3818C11.3722 14.3218 11.4156 14.1805 11.4552 14.1016C11.5438 13.926 11.6245 13.7467 11.6973 13.5638C11.7179 13.5119 11.7545 13.4567 11.776 13.4003C11.8159 13.2958 11.8897 13.046 11.9938 13.0037C12.0011 13.0007 12.0082 13.0011 12.0151 13.0049C12.0303 13.0129 12.0433 13.0255 12.0542 13.0427C12.2028 13.2776 12.3696 13.5223 12.5544 13.7768C12.6137 13.858 12.6735 13.9068 12.7625 13.9357C12.7663 13.937 12.7698 13.939 12.7727 13.9417C12.7756 13.9445 12.7779 13.9478 12.7794 13.9516C12.781 13.9553 12.7817 13.9593 12.7815 13.9634C12.7813 13.9674 12.7803 13.9714 12.7785 13.9749C12.6874 14.1558 12.5924 14.3302 12.4937 14.4982C12.469 14.5403 12.4518 14.5846 12.4421 14.6311C12.3814 14.922 12.328 15.2077 12.2471 15.4976C12.2042 15.6516 12.1623 15.8058 12.1215 15.9602C12.0922 16.0709 12.0849 16.1842 12.0756 16.2951C12.074 16.3136 12.0823 16.3228 12.1004 16.3228C12.3399 16.3233 12.571 16.3277 12.7935 16.336C12.9582 16.342 13.4059 16.3627 13.4017 16.0993C13.4015 16.091 13.3981 16.0844 13.3916 16.0795C13.3088 16.0161 13.1764 15.9937 13.0733 15.971C12.9692 15.948 12.8959 15.8438 12.8471 15.7537C12.8429 15.7459 12.8435 15.7385 12.849 15.7317C12.9064 15.6597 12.9721 15.5961 13.0173 15.522C13.0876 15.407 13.1391 15.3091 13.1717 15.2285C13.3149 14.8749 13.4592 14.5216 13.6046 14.1686C13.7345 13.854 13.6201 13.5946 13.4663 13.3233C13.3088 13.0451 13.1529 12.7658 12.9985 12.4855C12.9882 12.4668 12.9643 12.438 12.9268 12.3992C12.9203 12.3925 12.9166 12.3843 12.9158 12.3748L12.8879 12.0291C12.8876 12.0254 12.888 12.0217 12.8891 12.0181C12.8903 12.0146 12.8921 12.0113 12.8945 12.0085C12.8969 12.0056 12.8998 12.0033 12.9031 12.0017C12.9064 12 12.91 11.999 12.9137 11.9988L12.9938 11.9935C13.0023 11.993 13.0087 11.9891 13.0131 11.9818C13.0456 11.9287 13.0782 11.8759 13.111 11.8233C13.2081 11.6677 13.2847 11.4944 13.3717 11.3326C13.415 11.2522 13.3597 11.1958 13.322 11.1315C13.3165 11.1223 13.3178 11.1141 13.3257 11.1069L13.4206 11.0199C13.4271 11.0138 13.4344 11.0123 13.4427 11.0153C13.5435 11.0522 13.6371 11.1027 13.7237 11.1671C13.7309 11.1724 13.7388 11.1753 13.7474 11.1757C14.0005 11.1918 14.1838 11.0978 14.2264 10.8212C14.2332 10.7773 14.2557 10.76 14.2981 10.7667C14.3091 10.7685 14.3151 10.775 14.3162 10.7863L14.3242 10.8719C14.3245 10.8757 14.3256 10.8793 14.3274 10.8827C14.3292 10.886 14.3316 10.889 14.3345 10.8913C14.3373 10.8937 14.3406 10.8955 14.3442 10.8965C14.3477 10.8976 14.3514 10.8979 14.3551 10.8975C14.5062 10.8796 14.6529 10.8444 14.7953 10.7918C14.8034 10.7888 14.8067 10.7829 14.8051 10.7741C14.7929 10.7122 14.7496 10.3835 14.7149 10.3663C14.7063 10.362 14.7042 10.3556 14.7088 10.347Z" stroke="#855701" stroke-width="2"/>
<path d="M5.5216 11.7961C5.5841 11.7981 5.64653 11.7993 5.70887 11.7994C6.92949 11.8031 8.1502 11.8048 9.37098 11.8047C9.79754 11.8047 9.8341 11.6962 10.0019 11.3087C10.0864 11.1136 10.1677 10.9168 10.2457 10.7182C10.2488 10.7099 10.246 10.7058 10.2372 10.7058C9.01364 10.7048 7.78989 10.7048 6.56598 10.7058C6.35317 10.706 6.19715 10.7133 6.09793 10.7278C5.54543 10.8083 5.12856 11.0893 4.84731 11.5709C4.79949 11.6528 4.73231 11.7966 4.64574 12.0021C4.34793 12.7102 4.05129 13.4186 3.75582 14.1275C3.68856 14.2888 3.64309 14.4277 3.62879 14.5838C3.58496 15.0585 3.92645 15.4348 4.37739 15.4953C4.46457 15.5069 4.53926 15.5136 4.60145 15.5154C4.92192 15.5244 5.25793 15.5248 5.60949 15.5166C6.38106 15.4981 7.1552 15.5113 7.92699 15.5065C8.26637 15.5044 8.34114 15.3095 8.45645 15.037C8.54082 14.8372 8.6216 14.635 8.69879 14.4306C8.69967 14.4284 8.7 14.426 8.69974 14.4236C8.69948 14.4212 8.69864 14.4189 8.6973 14.4169C8.69595 14.4149 8.69415 14.4133 8.69204 14.4122C8.68993 14.4111 8.68758 14.4105 8.6852 14.4105H5.03059C5.02802 14.4105 5.02549 14.4099 5.02322 14.4087C5.02096 14.4074 5.01903 14.4056 5.01761 14.4034C5.01619 14.4012 5.01533 14.3987 5.0151 14.396C5.01487 14.3934 5.01528 14.3907 5.01629 14.3883L5.99363 12.0605C5.99692 12.0525 5.99481 12.0465 5.98731 12.0425C5.84082 11.9651 5.64887 11.9044 5.51832 11.8052C5.51004 11.7988 5.51114 11.7958 5.5216 11.7961Z" stroke="#855701" stroke-width="2"/>
<path d="M16.6291 11.8135C16.6282 11.813 16.6275 11.8123 16.627 11.8114C16.6266 11.8104 16.6265 11.8094 16.6267 11.8084C16.6269 11.8074 16.6275 11.8065 16.6282 11.8059C16.629 11.8053 16.63 11.8049 16.631 11.8049C18.0416 11.805 19.449 11.8049 20.8532 11.8046C21.2024 11.8046 21.3487 11.5837 21.4888 11.2646C21.5663 11.0882 21.6403 10.9108 21.7108 10.7323C21.7119 10.7293 21.7124 10.7262 21.712 10.723C21.7117 10.7199 21.7106 10.7169 21.7089 10.7143C21.7072 10.7116 21.7048 10.7095 21.7021 10.708C21.6994 10.7065 21.6963 10.7057 21.6932 10.7057C20.3588 10.7048 19.0251 10.7049 17.692 10.706C17.4757 10.7063 17.3198 10.7136 17.2242 10.728C16.6495 10.815 16.1927 11.1554 15.9379 11.6896C15.8098 11.9583 15.6967 12.2338 15.5985 12.516C15.4345 12.9877 15.6956 13.4739 16.1549 13.6099C16.2281 13.6316 16.3311 13.6426 16.4641 13.6431C17.3436 13.6461 18.2303 13.6468 19.124 13.645C19.1293 13.645 19.1344 13.6463 19.1391 13.6488C19.1437 13.6513 19.1477 13.6549 19.1505 13.6594C19.1534 13.6639 19.1552 13.669 19.1556 13.6744C19.1561 13.6797 19.1552 13.6851 19.1531 13.69L18.858 14.3815C18.8494 14.4018 18.8343 14.4118 18.8128 14.4116C17.5921 14.4081 16.3719 14.4093 15.1521 14.4152C14.9971 14.4162 14.8127 14.4339 14.733 14.5938C14.5867 14.887 14.4528 15.1873 14.3313 15.4947C14.3283 15.5024 14.3309 15.5062 14.339 15.5062C15.6906 15.511 17.0421 15.5113 18.3937 15.5072C18.5721 15.5065 18.7108 15.4997 18.8097 15.4866C19.4228 15.4058 19.916 15.02 20.1653 14.4422C20.4056 13.885 20.7956 13.2143 20.2094 12.7369C20.0224 12.5844 19.8274 12.5466 19.5885 12.5466C18.6987 12.5461 17.8081 12.5459 16.9169 12.5459C16.9064 12.5459 16.9031 12.541 16.9068 12.5311L17.0887 12.0611C17.0916 12.0537 17.0916 12.0453 17.0886 12.0379C17.0856 12.0304 17.08 12.0243 17.0728 12.021L16.6291 11.8135Z" stroke="#855701" stroke-width="2"/>
<path d="M0.400391 0.498047H24.4004V24.498H0.400391V0.498047ZM14.7095 10.3462C14.7425 10.2845 14.7767 10.2427 14.7875 10.1722C14.7953 10.1212 14.8025 10.0722 14.8091 10.0254C14.8123 10.0016 14.8257 9.98968 14.8491 9.98952L16.0114 9.97924C16.0234 9.97912 16.035 9.97415 16.0434 9.96542C16.0519 9.95669 16.0566 9.94491 16.0566 9.93263V9.7641C16.0566 9.75406 16.0615 9.74904 16.0712 9.74904H16.4879C16.4923 9.74905 16.4967 9.74813 16.5007 9.74635C16.5048 9.74456 16.5085 9.74195 16.5115 9.73866C16.5146 9.73537 16.5169 9.73148 16.5185 9.72723C16.52 9.72297 16.5207 9.71844 16.5205 9.7139L16.5165 9.62522C16.516 9.61327 16.5098 9.60721 16.498 9.60705L16.0923 9.6049C16.0843 9.60485 16.0767 9.60187 16.0707 9.59651C16.0648 9.59114 16.0609 9.58377 16.0599 9.57574L16.0414 9.4304C16.041 9.42722 16.0399 9.42419 16.0381 9.42152C16.0364 9.41885 16.0341 9.41663 16.0314 9.41502C16.0286 9.4134 16.0256 9.41244 16.0225 9.41221C16.0193 9.41197 16.0162 9.41247 16.0133 9.41366C15.9773 9.42865 15.9515 9.45414 15.9357 9.49016C15.9323 9.49813 15.9334 9.50538 15.9392 9.51191L15.9566 9.53151C15.9659 9.54219 15.9636 9.54721 15.9495 9.54657C15.8973 9.54394 15.8457 9.55781 15.7986 9.55781C15.1995 9.55813 14.6005 9.55598 14.0016 9.55135C13.9428 9.55112 13.7771 9.56474 13.8141 9.49494C13.818 9.48777 13.8239 9.48323 13.8317 9.48131L13.9316 9.45693C13.9402 9.45486 13.9455 9.44944 13.9477 9.44068C13.9958 9.24442 13.9609 9.08044 13.8406 8.91645C13.6564 8.66546 13.4045 8.56052 13.0848 8.60163C12.7742 8.64131 12.6209 8.94251 12.661 9.24442C12.662 9.25207 12.6616 9.25972 12.6598 9.26737L12.6448 9.33191C12.642 9.34402 12.6462 9.35247 12.6573 9.35725L12.7421 9.39454C12.7521 9.39884 12.7566 9.40657 12.7557 9.41773L12.7503 9.47343C12.7494 9.48295 12.7449 9.49173 12.7376 9.49786C12.7304 9.50399 12.721 9.50698 12.7116 9.50617C12.6116 9.49685 12.5309 9.50354 12.44 9.55327C12.1611 9.70554 11.9431 9.99 11.8311 10.2797C11.7844 10.401 11.7436 10.4895 11.7087 10.5453C11.7047 10.5518 11.702 10.5588 11.7008 10.5661C11.6969 10.5889 11.6876 10.6084 11.6729 10.6247C11.6665 10.6315 11.6587 10.6348 11.6495 10.6345C11.5974 10.6318 11.45 10.6163 11.4298 10.6832C11.3988 10.7862 11.3638 10.8877 11.3251 10.9878C11.2639 11.146 11.2177 11.3349 11.1392 11.5022C11.1379 11.505 11.1376 11.5083 11.1384 11.5113C11.1392 11.5143 11.1411 11.5168 11.1437 11.5184C11.2034 11.5565 11.2636 11.5952 11.3244 11.6344C11.4097 11.6894 11.2918 11.9188 11.2529 11.9898C11.2393 12.0145 11.2162 12.0408 11.1835 12.0687C11.1002 12.1398 11.053 12.2329 11.042 12.3479C11.0412 12.3554 11.0386 12.3621 11.0342 12.368C10.977 12.4464 10.9583 12.5243 10.9271 12.6149C10.9002 12.6933 10.7968 12.6532 10.7326 12.7015C10.726 12.7063 10.7225 12.7128 10.722 12.7211C10.7028 13.0617 10.6843 13.4009 10.6191 13.7368C10.5992 13.84 10.4572 13.9287 10.397 13.9985C10.2526 14.1659 10.1348 14.3545 10.0438 14.5646C9.93672 14.8118 9.81031 15.0871 9.66453 15.3907C9.60422 15.5161 9.57812 15.6624 9.58625 15.8296C9.59445 16.0029 9.39945 16.1153 9.37977 16.2933C9.37898 16.3007 9.38078 16.3074 9.38516 16.3134L9.45477 16.4069C9.46039 16.4145 9.46789 16.4184 9.47727 16.4184C9.63898 16.4185 9.80078 16.4184 9.96266 16.4181C10.029 16.4181 10.0895 16.3672 10.107 16.3017C10.1398 16.1781 10.1438 16.0459 10.1562 15.919C10.1602 15.8803 10.1483 15.7851 10.1844 15.7419C10.5623 15.2871 10.9417 14.8334 11.3225 14.381C11.3729 14.321 11.4163 14.1797 11.4559 14.1008C11.5445 13.9252 11.6252 13.7459 11.698 13.563C11.7186 13.5111 11.7552 13.4559 11.7767 13.3995C11.8166 13.295 11.8904 13.0452 11.9945 13.0029C12.0018 12.9999 12.0089 13.0003 12.0158 13.0041C12.0309 13.0121 12.044 13.0247 12.0549 13.0419C12.2035 13.2768 12.3702 13.5215 12.5551 13.776C12.6144 13.8573 12.6741 13.906 12.7632 13.9349C12.767 13.9362 12.7705 13.9382 12.7734 13.9409C12.7763 13.9437 12.7786 13.947 12.7801 13.9508C12.7816 13.9545 12.7823 13.9585 12.7822 13.9626C12.782 13.9666 12.781 13.9706 12.7791 13.9741C12.688 14.155 12.5931 14.3294 12.4944 14.4974C12.4697 14.5395 12.4525 14.5838 12.4428 14.6303C12.3821 14.9212 12.3287 15.2069 12.2478 15.4969C12.2048 15.6508 12.163 15.805 12.1222 15.9594C12.0929 16.0701 12.0856 16.1834 12.0763 16.2943C12.0747 16.3128 12.083 16.322 12.1011 16.322C12.3406 16.3225 12.5716 16.3269 12.7941 16.3352C12.9589 16.3412 13.4066 16.362 13.4023 16.0985C13.4022 16.0902 13.3988 16.0836 13.3923 16.0787C13.3095 16.0153 13.1771 15.9929 13.074 15.9702C12.9699 15.9472 12.8966 15.843 12.8478 15.7529C12.8436 15.7451 12.8442 15.7377 12.8497 15.7309C12.9071 15.6589 12.9727 15.5953 13.018 15.5212C13.0883 15.4062 13.1398 15.3083 13.1724 15.2277C13.3155 14.8741 13.4598 14.5208 13.6053 14.1678C13.7352 13.8532 13.6208 13.5938 13.467 13.3225C13.3095 13.0443 13.1536 12.765 12.9992 12.4847C12.9889 12.466 12.965 12.4373 12.9275 12.3984C12.9209 12.3917 12.9173 12.3835 12.9165 12.374L12.8886 12.0283C12.8883 12.0246 12.8887 12.0209 12.8898 12.0173C12.891 12.0138 12.8928 12.0105 12.8952 12.0077C12.8976 12.0048 12.9005 12.0025 12.9038 12.0009C12.9071 11.9992 12.9107 11.9982 12.9144 11.998L12.9945 11.9927C13.003 11.9922 13.0094 11.9883 13.0138 11.981C13.0462 11.9279 13.0789 11.8751 13.1117 11.8225C13.2087 11.6669 13.2854 11.4936 13.3723 11.3318C13.4157 11.2514 13.3604 11.195 13.3227 11.1307C13.3172 11.1215 13.3184 11.1133 13.3264 11.1061L13.4213 11.0191C13.4277 11.013 13.4351 11.0115 13.4434 11.0145C13.5441 11.0514 13.6378 11.102 13.7244 11.1663C13.7316 11.1716 13.7395 11.1745 13.748 11.1749C14.0012 11.191 14.1845 11.097 14.2271 10.8204C14.2339 10.7765 14.2564 10.7592 14.2988 10.7659C14.3098 10.7677 14.3158 10.7742 14.3169 10.7855L14.3248 10.8711C14.3252 10.8749 14.3263 10.8785 14.3281 10.8819C14.3299 10.8852 14.3323 10.8882 14.3351 10.8905C14.338 10.8929 14.3413 10.8947 14.3449 10.8957C14.3484 10.8968 14.3521 10.8971 14.3558 10.8967C14.5069 10.8788 14.6536 10.8436 14.7959 10.791C14.8041 10.788 14.8073 10.7821 14.8058 10.7733C14.7936 10.7114 14.7502 10.3827 14.7155 10.3655C14.707 10.3612 14.7049 10.3548 14.7095 10.3462ZM5.52172 11.796C5.58422 11.798 5.64664 11.7992 5.70898 11.7993C6.92961 11.803 8.15031 11.8047 9.37109 11.8046C9.79766 11.8046 9.83422 11.6961 10.002 11.3086C10.0866 11.1135 10.1678 10.9167 10.2458 10.7181C10.2489 10.7098 10.2461 10.7057 10.2373 10.7057C9.01375 10.7047 7.79 10.7047 6.56609 10.7057C6.35328 10.7059 6.19727 10.7132 6.09805 10.7277C5.54555 10.8082 5.12867 11.0892 4.84742 11.5708C4.79961 11.6527 4.73242 11.7965 4.64586 12.002C4.34805 12.7101 4.05141 13.4185 3.75594 14.1274C3.68867 14.2887 3.6432 14.4276 3.62891 14.5837C3.58508 15.0584 3.92656 15.4347 4.3775 15.4952C4.46469 15.5068 4.53937 15.5135 4.60156 15.5153C4.92203 15.5243 5.25805 15.5247 5.60961 15.5165C6.38117 15.498 7.15531 15.5112 7.92711 15.5064C8.26648 15.5043 8.34125 15.3094 8.45656 15.0369C8.54094 14.8371 8.62172 14.6349 8.69891 14.4305C8.69979 14.4283 8.70012 14.4259 8.69985 14.4235C8.69959 14.4211 8.69876 14.4188 8.69741 14.4168C8.69607 14.4148 8.69426 14.4132 8.69215 14.4121C8.69004 14.411 8.68769 14.4104 8.68531 14.4104H5.0307C5.02813 14.4104 5.0256 14.4098 5.02334 14.4086C5.02107 14.4073 5.01914 14.4055 5.01773 14.4033C5.01631 14.4011 5.01544 14.3986 5.01521 14.3959C5.01498 14.3933 5.01539 14.3906 5.01641 14.3882L5.99375 12.0604C5.99703 12.0524 5.99492 12.0464 5.98742 12.0424C5.84094 11.965 5.64898 11.9043 5.51844 11.8051C5.51016 11.7987 5.51125 11.7957 5.52172 11.796ZM16.6299 11.8134C16.629 11.813 16.6283 11.8122 16.6279 11.8113C16.6275 11.8104 16.6273 11.8094 16.6276 11.8084C16.6278 11.8074 16.6283 11.8065 16.6291 11.8059C16.6298 11.8052 16.6308 11.8048 16.6318 11.8048C18.0424 11.805 19.4498 11.8049 20.8541 11.8046C21.2033 11.8046 21.3495 11.5837 21.4897 11.2646C21.5672 11.0882 21.6412 10.9107 21.7116 10.7322C21.7128 10.7293 21.7132 10.7261 21.7129 10.723C21.7125 10.7198 21.7115 10.7168 21.7097 10.7142C21.708 10.7116 21.7057 10.7095 21.7029 10.708C21.7002 10.7065 21.6972 10.7057 21.6941 10.7057C20.3597 10.7047 19.0259 10.7048 17.6928 10.7059C17.4766 10.7063 17.3206 10.7136 17.225 10.7279C16.6503 10.8149 16.1935 11.1553 15.9387 11.6896C15.8106 11.9583 15.6975 12.2337 15.5994 12.516C15.4353 12.9876 15.6964 13.4738 16.1558 13.6098C16.2289 13.6315 16.332 13.6426 16.4649 13.6431C17.3445 13.6461 18.2311 13.6467 19.1248 13.645C19.1301 13.6449 19.1353 13.6462 19.1399 13.6487C19.1445 13.6512 19.1485 13.6549 19.1514 13.6594C19.1543 13.6638 19.156 13.669 19.1565 13.6743C19.1569 13.6797 19.156 13.685 19.1539 13.6899L18.8588 14.3815C18.8502 14.4017 18.8352 14.4118 18.8136 14.4116C17.593 14.4081 16.3727 14.4093 15.1529 14.4152C14.998 14.4161 14.8135 14.4338 14.7338 14.5937C14.5876 14.887 14.4537 15.1873 14.3321 15.4947C14.3291 15.5023 14.3317 15.5062 14.3398 15.5062C15.6914 15.511 17.043 15.5113 18.3945 15.5071C18.573 15.5065 18.7116 15.4996 18.8105 15.4866C19.4237 15.4058 19.9168 15.02 20.1662 14.4422C20.4064 13.885 20.7964 13.2142 20.2102 12.7369C20.0232 12.5843 19.8282 12.5466 19.5894 12.5466C18.6995 12.5461 17.809 12.5459 16.9177 12.5459C16.9073 12.5459 16.9039 12.5409 16.9077 12.531L17.0895 12.0611C17.0924 12.0536 17.0924 12.0453 17.0895 12.0378C17.0865 12.0303 17.0808 12.0243 17.0736 12.0209L16.6299 11.8134Z" fill="#FFAB01"/>
<path d="M14.7149 10.3663C14.7496 10.3835 14.7929 10.7122 14.8051 10.7741C14.8067 10.7829 14.8034 10.7888 14.7953 10.7918C14.6529 10.8444 14.5062 10.8796 14.3551 10.8975C14.3514 10.8979 14.3477 10.8976 14.3442 10.8965C14.3406 10.8955 14.3373 10.8937 14.3345 10.8913C14.3316 10.889 14.3292 10.886 14.3274 10.8827C14.3256 10.8793 14.3245 10.8757 14.3242 10.8719L14.3162 10.7863C14.3151 10.775 14.3091 10.7685 14.2981 10.7667C14.2557 10.76 14.2332 10.7773 14.2264 10.8212C14.1838 11.0978 14.0005 11.1918 13.7474 11.1757C13.7388 11.1753 13.7309 11.1724 13.7237 11.1671C13.6371 11.1027 13.5435 11.0522 13.4427 11.0153C13.4344 11.0123 13.4271 11.0138 13.4206 11.0199L13.3257 11.1069C13.3178 11.1141 13.3165 11.1223 13.322 11.1315C13.3597 11.1958 13.415 11.2522 13.3717 11.3326C13.2847 11.4944 13.2081 11.6677 13.111 11.8233C13.0782 11.8759 13.0456 11.9287 13.0131 11.9818C13.0087 11.9891 13.0023 11.993 12.9938 11.9935L12.9137 11.9988C12.91 11.999 12.9064 12 12.9031 12.0017C12.8998 12.0033 12.8969 12.0056 12.8945 12.0085C12.8921 12.0113 12.8903 12.0146 12.8891 12.0181C12.888 12.0217 12.8876 12.0254 12.8879 12.0291L12.9158 12.3748C12.9166 12.3843 12.9203 12.3925 12.9268 12.3992C12.9643 12.438 12.9882 12.4668 12.9985 12.4855C13.1529 12.7658 13.3088 13.0451 13.4663 13.3233C13.6201 13.5946 13.7345 13.854 13.6046 14.1686C13.4592 14.5216 13.3149 14.8749 13.1717 15.2285C13.1391 15.3091 13.0876 15.407 13.0173 15.522C12.9721 15.5961 12.9064 15.6597 12.849 15.7317C12.8435 15.7385 12.8429 15.7459 12.8471 15.7537C12.8959 15.8438 12.9692 15.948 13.0733 15.971C13.1764 15.9937 13.3088 16.0161 13.3916 16.0795C13.3981 16.0844 13.4015 16.091 13.4017 16.0993C13.4059 16.3628 12.9582 16.342 12.7935 16.336C12.571 16.3277 12.3399 16.3233 12.1004 16.3228C12.0823 16.3228 12.074 16.3136 12.0756 16.2951C12.0849 16.1842 12.0922 16.0709 12.1215 15.9602C12.1623 15.8058 12.2042 15.6516 12.2471 15.4977C12.328 15.2077 12.3814 14.922 12.4421 14.6311C12.4518 14.5846 12.469 14.5403 12.4937 14.4982C12.5924 14.3302 12.6874 14.1558 12.7785 13.9749C12.7803 13.9714 12.7813 13.9674 12.7815 13.9634C12.7817 13.9593 12.781 13.9553 12.7794 13.9516C12.7779 13.9478 12.7756 13.9445 12.7727 13.9417C12.7698 13.939 12.7663 13.937 12.7625 13.9357C12.6735 13.9068 12.6137 13.858 12.5544 13.7768C12.3696 13.5223 12.2028 13.2776 12.0542 13.0427C12.0433 13.0255 12.0303 13.0129 12.0151 13.0049C12.0082 13.0011 12.0011 13.0007 11.9938 13.0037C11.8897 13.046 11.8159 13.2958 11.776 13.4003C11.7545 13.4567 11.7179 13.5119 11.6973 13.5638C11.6245 13.7467 11.5438 13.926 11.4552 14.1016C11.4156 14.1805 11.3722 14.3218 11.3218 14.3818C10.941 14.8342 10.5617 15.2878 10.1837 15.7427C10.1476 15.7859 10.1596 15.8811 10.1556 15.9198C10.1431 16.0467 10.1392 16.1789 10.1063 16.3025C10.0888 16.368 10.0283 16.4189 9.96197 16.4189C9.8001 16.4192 9.6383 16.4193 9.47658 16.4192C9.46721 16.4192 9.45971 16.4153 9.45408 16.4077L9.38447 16.3142C9.3801 16.3082 9.3783 16.3015 9.37908 16.2941C9.39877 16.1161 9.59377 16.0037 9.58557 15.8304C9.57744 15.6632 9.60354 15.5169 9.66385 15.3915C9.80963 15.0879 9.93604 14.8126 10.0431 14.5654C10.1342 14.3553 10.2519 14.1667 10.3963 13.9993C10.4565 13.9295 10.5985 13.8408 10.6185 13.7376C10.6836 13.4017 10.7021 13.0625 10.7213 12.7219C10.7218 12.7136 10.7253 12.7071 10.7319 12.7023C10.7961 12.654 10.8995 12.6941 10.9264 12.6157C10.9576 12.5251 10.9763 12.4472 11.0335 12.3688C11.0379 12.3629 11.0405 12.3562 11.0413 12.3487C11.0524 12.2337 11.0996 12.1406 11.1828 12.0695C11.2155 12.0416 11.2386 12.0153 11.2522 11.9906C11.2911 11.9196 11.409 11.6902 11.3237 11.6352C11.2629 11.596 11.2027 11.5573 11.143 11.5192C11.1404 11.5176 11.1385 11.5151 11.1377 11.5121C11.1369 11.509 11.1372 11.5058 11.1385 11.503C11.2171 11.3357 11.2632 11.1468 11.3244 10.9886C11.3631 10.8885 11.3981 10.787 11.4292 10.684C11.4493 10.6171 11.5967 10.6326 11.6488 10.6353C11.658 10.6356 11.6658 10.6323 11.6722 10.6255C11.6869 10.6092 11.6962 10.5897 11.7001 10.5669C11.7013 10.5596 11.704 10.5526 11.7081 10.5461C11.7429 10.4903 11.7837 10.4018 11.8304 10.2805C11.9424 9.9908 12.1604 9.70634 12.4393 9.55406C12.5303 9.50434 12.6109 9.49765 12.711 9.50697C12.7204 9.50778 12.7297 9.50479 12.7369 9.49866C12.7442 9.49253 12.7487 9.48375 12.7496 9.47422L12.755 9.41853C12.756 9.40737 12.7514 9.39964 12.7414 9.39534L12.6566 9.35805C12.6455 9.35327 12.6413 9.34482 12.6442 9.33271L12.6592 9.26817C12.6609 9.26052 12.6613 9.25287 12.6603 9.24522C12.6203 8.94331 12.7735 8.64211 13.0841 8.60243C13.4038 8.56132 13.6557 8.66626 13.8399 8.91725C13.9602 9.08124 13.9951 9.24522 13.9471 9.44147C13.9449 9.45024 13.9395 9.45566 13.9309 9.45773L13.831 9.48211C13.8232 9.48402 13.8174 9.48857 13.8135 9.49574C13.7764 9.56554 13.9421 9.55191 14.001 9.55215C14.5999 9.55677 15.1988 9.55892 15.7979 9.55861C15.845 9.55861 15.8966 9.54474 15.9488 9.54737C15.9629 9.54801 15.9653 9.54299 15.9559 9.53231L15.9385 9.51271C15.9328 9.50618 15.9316 9.49893 15.935 9.49096C15.9508 9.45494 15.9767 9.42944 16.0126 9.41446C16.0155 9.41327 16.0187 9.41277 16.0218 9.41301C16.0249 9.41324 16.028 9.4142 16.0307 9.41581C16.0334 9.41743 16.0357 9.41965 16.0374 9.42232C16.0392 9.42498 16.0403 9.42802 16.0407 9.4312L16.0592 9.57653C16.0603 9.58456 16.0641 9.59194 16.07 9.5973C16.076 9.60267 16.0836 9.60565 16.0916 9.6057L16.4973 9.60785C16.5092 9.60801 16.5153 9.61406 16.5158 9.62602L16.5198 9.7147C16.52 9.71924 16.5193 9.72377 16.5178 9.72803C16.5163 9.73228 16.5139 9.73617 16.5108 9.73946C16.5078 9.74275 16.5041 9.74536 16.5001 9.74715C16.496 9.74893 16.4916 9.74985 16.4872 9.74984H16.0705C16.0608 9.74984 16.056 9.75486 16.056 9.7649V9.93343C16.056 9.94571 16.0512 9.95749 16.0427 9.96622C16.0343 9.97495 16.0228 9.97991 16.0107 9.98004L14.8485 9.99032C14.825 9.99048 14.8117 10.0024 14.8084 10.0262C14.8018 10.073 14.7946 10.122 14.7868 10.1729C14.776 10.2435 14.7418 10.2853 14.7088 10.347C14.7042 10.3556 14.7063 10.362 14.7149 10.3663Z" fill="#0B0301"/>
<path d="M5.51832 11.8052C5.64887 11.9044 5.84082 11.9651 5.98731 12.0425C5.99481 12.0465 5.99692 12.0525 5.99363 12.0605L5.01629 14.3883C5.01528 14.3907 5.01487 14.3934 5.0151 14.396C5.01533 14.3987 5.01619 14.4012 5.01761 14.4034C5.01903 14.4056 5.02096 14.4074 5.02322 14.4087C5.02549 14.4099 5.02802 14.4105 5.03059 14.4105H8.6852C8.68758 14.4105 8.68993 14.4111 8.69204 14.4122C8.69415 14.4133 8.69595 14.4149 8.6973 14.4169C8.69864 14.4189 8.69948 14.4212 8.69974 14.4236C8.7 14.426 8.69967 14.4284 8.69879 14.4306C8.6216 14.635 8.54082 14.8372 8.45645 15.037C8.34114 15.3095 8.26637 15.5044 7.92699 15.5065C7.1552 15.5113 6.38106 15.4981 5.60949 15.5166C5.25793 15.5248 4.92192 15.5244 4.60145 15.5154C4.53926 15.5136 4.46457 15.5069 4.37739 15.4953C3.92645 15.4348 3.58496 15.0585 3.62879 14.5838C3.64309 14.4277 3.68856 14.2888 3.75582 14.1275C4.05129 13.4186 4.34793 12.7102 4.64574 12.0021C4.73231 11.7966 4.79949 11.6528 4.84731 11.5709C5.12856 11.0893 5.54543 10.8083 6.09793 10.7278C6.19715 10.7133 6.35317 10.706 6.56598 10.7058C7.78989 10.7048 9.01364 10.7048 10.2372 10.7058C10.246 10.7058 10.2488 10.7099 10.2457 10.7182C10.1677 10.9168 10.0864 11.1136 10.0019 11.3087C9.8341 11.6962 9.79754 11.8047 9.37098 11.8047C8.1502 11.8048 6.92949 11.8031 5.70887 11.7994C5.64653 11.7993 5.5841 11.7981 5.5216 11.7961C5.51113 11.7958 5.51004 11.7988 5.51832 11.8052Z" fill="#0B0301"/>
<path d="M16.6291 11.8135L17.0728 12.021C17.08 12.0243 17.0856 12.0304 17.0886 12.0379C17.0916 12.0453 17.0916 12.0537 17.0887 12.0611L16.9068 12.5311C16.9031 12.541 16.9064 12.5459 16.9169 12.5459C17.8081 12.5459 18.6987 12.5461 19.5885 12.5466C19.8274 12.5466 20.0224 12.5844 20.2094 12.7369C20.7956 13.2143 20.4056 13.885 20.1653 14.4422C19.916 15.02 19.4228 15.4058 18.8097 15.4866C18.7108 15.4997 18.5721 15.5065 18.3937 15.5072C17.0421 15.5113 15.6906 15.511 14.339 15.5062C14.3309 15.5062 14.3283 15.5024 14.3313 15.4947C14.4528 15.1873 14.5867 14.887 14.733 14.5938C14.8127 14.4339 14.9971 14.4162 15.1521 14.4152C16.3719 14.4093 17.5921 14.4081 18.8128 14.4116C18.8343 14.4118 18.8494 14.4018 18.858 14.3815L19.1531 13.69C19.1552 13.6851 19.1561 13.6797 19.1556 13.6744C19.1552 13.669 19.1534 13.6639 19.1505 13.6594C19.1477 13.6549 19.1437 13.6513 19.1391 13.6488C19.1344 13.6463 19.1293 13.645 19.124 13.645C18.2303 13.6468 17.3436 13.6461 16.4641 13.6431C16.3311 13.6426 16.2281 13.6316 16.1549 13.6099C15.6956 13.4739 15.4345 12.9877 15.5985 12.516C15.6967 12.2338 15.8098 11.9583 15.9379 11.6896C16.1927 11.1554 16.6495 10.815 17.2242 10.728C17.3198 10.7136 17.4757 10.7063 17.692 10.706C19.0251 10.7049 20.3588 10.7048 21.6932 10.7057C21.6963 10.7057 21.6994 10.7065 21.7021 10.708C21.7048 10.7095 21.7072 10.7116 21.7089 10.7143C21.7106 10.7169 21.7117 10.7199 21.712 10.723C21.7124 10.7262 21.7119 10.7293 21.7108 10.7323C21.6403 10.9108 21.5663 11.0882 21.4888 11.2646C21.3487 11.5837 21.2024 11.8046 20.8532 11.8046C19.449 11.8049 18.0416 11.805 16.631 11.8049C16.63 11.8049 16.629 11.8053 16.6282 11.8059C16.6275 11.8065 16.6269 11.8074 16.6267 11.8084C16.6265 11.8094 16.6266 11.8104 16.627 11.8114C16.6275 11.8123 16.6282 11.813 16.6291 11.8135Z" fill="#0B0301"/>
</g>
</g>
<defs>
<clipPath id="clip0_10342_11755">
<rect x="0.400391" y="0.498047" width="24" height="24" rx="8" fill="white"/>
</clipPath>
<clipPath id="clip1_10342_11755">
<rect x="0.400391" y="0.498047" width="24" height="24" rx="4" fill="white"/>
</clipPath>
</defs>
</svg>
