<svg width="42" height="42" viewBox="0 0 42 42" fill="none" xmlns="http://www.w3.org/2000/svg">
<rect width="42" height="42" rx="7" fill="#3C3C3C"/>
<path d="M37.0878 20.2744C35.5854 13.7373 33.3242 10.2483 29.9701 9.29526C29.265 9.09621 28.5337 8.99677 27.7989 9.00008C26.8278 9.00008 25.982 9.22777 25.0873 9.4691C24.0091 9.7602 22.7844 10.0908 20.9985 10.0908C19.2127 10.0908 17.9872 9.76088 16.907 9.46978C16.0116 9.22777 15.1665 9.00008 14.1981 9.00008C13.4384 8.99751 12.6819 9.09663 11.9505 9.29458C8.61404 10.2435 6.35432 13.7312 4.8299 20.2703C3.19072 27.307 3.99756 31.7497 7.09245 32.7805C7.51667 32.9244 7.96304 32.9986 8.41286 33C10.533 33 12.2331 31.3005 13.3949 29.9091C14.7075 28.3343 16.2439 27.5353 20.9985 27.5353C25.2452 27.5353 27.0027 28.0896 28.5208 29.9091C29.4749 31.053 30.3767 31.8533 31.2763 32.3571C32.4728 33.0266 33.6685 33.1752 34.8295 32.7914C36.6586 32.1908 37.707 30.6031 37.9464 28.0712C38.1284 26.1296 37.8479 23.5793 37.0878 20.2744ZM17.5983 19.9076H15.3315V22.0891C15.3315 22.3784 15.2121 22.6558 14.9996 22.8604C14.787 23.0649 14.4987 23.1798 14.1981 23.1798C13.8976 23.1798 13.6093 23.0649 13.3967 22.8604C13.1842 22.6558 13.0648 22.3784 13.0648 22.0891V19.9076H10.798C10.4974 19.9076 10.2091 19.7927 9.99652 19.5881C9.78397 19.3836 9.66456 19.1061 9.66456 18.8168C9.66456 18.5276 9.78397 18.2501 9.99652 18.0456C10.2091 17.841 10.4974 17.7261 10.798 17.7261H13.0648V15.5446C13.0648 15.2553 13.1842 14.9779 13.3967 14.7733C13.6093 14.5688 13.8976 14.4538 14.1981 14.4538C14.4987 14.4538 14.787 14.5688 14.9996 14.7733C15.2121 14.9779 15.3315 15.2553 15.3315 15.5446V17.7261H17.5983C17.8989 17.7261 18.1872 17.841 18.3998 18.0456C18.6123 18.2501 18.7317 18.5276 18.7317 18.8168C18.7317 19.1061 18.6123 19.3836 18.3998 19.5881C18.1872 19.7927 17.8989 19.9076 17.5983 19.9076ZM23.5487 20.1803C23.2685 20.1803 22.9946 20.1003 22.7616 19.9505C22.5286 19.8007 22.347 19.5877 22.2398 19.3386C22.1326 19.0895 22.1045 18.8153 22.1592 18.5508C22.2138 18.2864 22.3488 18.0434 22.5469 17.8527C22.745 17.6621 22.9975 17.5322 23.2723 17.4796C23.5471 17.427 23.832 17.454 24.0909 17.5572C24.3497 17.6604 24.571 17.8351 24.7267 18.0594C24.8823 18.2836 24.9654 18.5472 24.9654 18.8168C24.9654 19.1784 24.8162 19.5252 24.5505 19.7809C24.2848 20.0366 23.9244 20.1803 23.5487 20.1803ZM26.6655 23.1798C26.3852 23.1798 26.1111 23.0998 25.8781 22.9498C25.645 22.7998 25.4634 22.5867 25.3563 22.3374C25.2492 22.088 25.2213 21.8137 25.2763 21.5491C25.3312 21.2846 25.4665 21.0416 25.665 20.8511C25.8635 20.6606 26.1163 20.531 26.3913 20.4787C26.6664 20.4265 26.9513 20.454 27.2102 20.5577C27.469 20.6614 27.69 20.8367 27.8452 21.0614C28.0005 21.2861 28.083 21.55 28.0823 21.8198C28.0813 22.1808 27.9317 22.5267 27.6661 22.7817C27.4005 23.0367 27.0407 23.1798 26.6655 23.1798ZM26.6655 17.1807C26.3853 17.1807 26.1114 17.1007 25.8784 16.9509C25.6454 16.8011 25.4639 16.5882 25.3566 16.339C25.2494 16.0899 25.2213 15.8158 25.276 15.5513C25.3307 15.2868 25.4656 15.0439 25.6637 14.8532C25.8619 14.6625 26.1143 14.5326 26.3891 14.48C26.664 14.4274 26.9488 14.4544 27.2077 14.5576C27.4666 14.6608 27.6878 14.8356 27.8435 15.0598C27.9992 15.284 28.0823 15.5476 28.0823 15.8173C28.0823 16.1789 27.933 16.5257 27.6673 16.7814C27.4016 17.0371 27.0413 17.1807 26.6655 17.1807ZM29.7824 20.1803C29.5022 20.1803 29.2283 20.1003 28.9953 19.9505C28.7623 19.8007 28.5807 19.5877 28.4735 19.3386C28.3662 19.0895 28.3382 18.8153 28.3929 18.5508C28.4475 18.2864 28.5825 18.0434 28.7806 17.8527C28.9787 17.6621 29.2312 17.5322 29.506 17.4796C29.7808 17.427 30.0657 17.454 30.3245 17.5572C30.5834 17.6604 30.8047 17.8351 30.9604 18.0594C31.116 18.2836 31.1991 18.5472 31.1991 18.8168C31.1991 19.1784 31.0499 19.5252 30.7842 19.7809C30.5185 20.0366 30.1581 20.1803 29.7824 20.1803Z" fill="#111111"/>
</svg>
