<svg width="16" height="17" viewBox="0 0 16 17" fill="none" xmlns="http://www.w3.org/2000/svg">
<g clip-path="url(#clip0_6799_15790)">
<path d="M9.93103 2.43009V1.32666C9.93103 1.17431 9.8075 1.05078 9.65516 1.05078H1.37931C1.22697 1.05078 1.10344 1.17431 1.10344 1.32666V2.43009C1.10344 2.58244 1.22697 2.70597 1.37931 2.70597H0.275875C0.123531 2.70597 0 2.82947 0 2.98181V4.08525C0 4.23759 0.123531 4.36112 0.275875 4.36112H0.827594C0.67525 4.36112 0.551719 4.48466 0.551719 4.637V5.74044C0.551719 5.89278 0.67525 6.01631 0.827594 6.01631H0.275875C0.123531 6.01631 0 6.13984 0 6.29219V7.39563C0 7.54797 0.123531 7.6715 0.275875 7.6715H1.37931C1.22697 7.6715 1.10344 7.79503 1.10344 7.94737V9.05081C1.10344 9.20316 1.22697 9.32669 1.37931 9.32669H0.275875C0.123531 9.32669 0 9.45022 0 9.60256V10.706C0 10.8583 0.123531 10.9819 0.275875 10.9819H0.827594C0.67525 10.9819 0.551719 11.1054 0.551719 11.2578V12.3612C0.551719 12.5135 0.67525 12.6371 0.827594 12.6371H0.275875C0.123531 12.6371 0 12.7606 0 12.9129V14.0164C0 14.1687 0.123531 14.2922 0.275875 14.2922H1.37931C1.22697 14.2922 1.10344 14.4158 1.10344 14.5681V15.6716C1.10344 15.8239 1.22697 15.9474 1.37931 15.9474H9.65519C9.80753 15.9474 9.93106 15.8239 9.93106 15.6716V7.94734C9.93106 7.795 9.80753 7.67147 9.65519 7.67147H8.55175C8.70409 7.67147 8.82763 7.54794 8.82763 7.39559V6.29216C8.82763 6.13981 8.70409 6.01628 8.55175 6.01628H9.10347C9.25581 6.01628 9.37934 5.89275 9.37934 5.74041V4.63697C9.37934 4.48462 9.25581 4.36109 9.10347 4.36109H8.55175C8.70409 4.36109 8.82763 4.23756 8.82763 4.08522V2.98178C8.82763 2.82944 8.70409 2.70591 8.55175 2.70591H9.65519C9.80753 2.70597 9.93103 2.58244 9.93103 2.43009Z" fill="#FFDC64"/>
<path d="M9.65504 7.67258H8.5516C8.70395 7.67258 8.82748 7.54905 8.82748 7.3967V7.08398C7.33904 8.00861 6.34473 9.65352 6.34473 11.5346C6.34473 13.3904 7.31179 15.017 8.76679 15.9484H9.65507C9.80741 15.9484 9.93095 15.8249 9.93095 15.6725V7.94845C9.93088 7.79611 9.80738 7.67258 9.65504 7.67258Z" fill="#FFC850"/>
<path d="M8.27584 6.01652H7.72412C7.57177 6.01652 7.44824 5.89298 7.44824 5.74064V4.6372C7.44824 4.48486 7.57177 4.36133 7.72412 4.36133H8.27584C8.42818 4.36133 8.55171 4.48486 8.55171 4.6372V5.74064C8.55168 5.89298 8.42818 6.01652 8.27584 6.01652Z" fill="#FFF082"/>
<path d="M7.72408 4.36222H7.17236C7.02002 4.36222 6.89648 4.23869 6.89648 4.08634V2.98291C6.89648 2.83056 7.02002 2.70703 7.17236 2.70703H7.72408C7.87642 2.70703 7.99995 2.83056 7.99995 2.98291V4.08634C7.99995 4.23872 7.87642 4.36222 7.72408 4.36222Z" fill="#FFF082"/>
<path d="M7.72408 7.67277H7.17236C7.02002 7.67277 6.89648 7.54923 6.89648 7.39689V6.29345C6.89648 6.14111 7.02002 6.01758 7.17236 6.01758H7.72408C7.87642 6.01758 7.99995 6.14111 7.99995 6.29345V7.39689C7.99995 7.54927 7.87642 7.67277 7.72408 7.67277Z" fill="#FFF082"/>
<path d="M11.5866 15.9487C14.0243 15.9487 16.0004 13.9725 16.0004 11.5349C16.0004 9.09721 14.0243 7.12109 11.5866 7.12109C9.14897 7.12109 7.17285 9.09721 7.17285 11.5349C7.17285 13.9725 9.14897 15.9487 11.5866 15.9487Z" fill="#FFDC64"/>
<path d="M11.5867 15.396C13.7196 15.396 15.4487 13.6669 15.4487 11.5339C15.4487 9.40098 13.7196 7.67188 11.5867 7.67188C9.45371 7.67188 7.72461 9.40098 7.72461 11.5339C7.72461 13.6669 9.45371 15.396 11.5867 15.396Z" fill="#FFC850"/>
<path d="M11.5857 14.8453C13.414 14.8453 14.8961 13.3632 14.8961 11.535C14.8961 9.7067 13.414 8.22461 11.5857 8.22461C9.75748 8.22461 8.27539 9.7067 8.27539 11.535C8.27539 13.3632 9.75748 14.8453 11.5857 14.8453Z" fill="#FFF082"/>
<path d="M11.8622 11.3337V10.186C12.19 10.2549 12.4139 10.4364 12.4139 10.604C12.4139 10.7565 12.5373 10.8799 12.6898 10.8799C12.8423 10.8799 12.9657 10.7565 12.9657 10.604C12.9657 10.1121 12.4991 9.71391 11.8623 9.62359V9.604C11.8623 9.45153 11.7389 9.32812 11.5864 9.32812C11.4339 9.32812 11.3105 9.4515 11.3105 9.604V9.62359C10.6737 9.71394 10.2071 10.1121 10.2071 10.604C10.2071 11.2993 10.8129 11.5711 11.3105 11.7363V12.8841C10.9827 12.8151 10.7588 12.6336 10.7588 12.4661C10.7588 12.3136 10.6354 12.1902 10.4829 12.1902C10.3304 12.1902 10.207 12.3136 10.207 12.4661C10.207 12.958 10.6737 13.3562 11.3105 13.4465V13.4661C11.3105 13.6185 11.4338 13.7419 11.5863 13.7419C11.7388 13.7419 11.8622 13.6186 11.8622 13.4661V13.4465C12.4991 13.3561 12.9657 12.9579 12.9657 12.4661C12.9657 11.7708 12.3598 11.4989 11.8622 11.3337ZM10.7588 10.604C10.7588 10.4365 10.9827 10.255 11.3105 10.186V11.147C10.8995 10.9861 10.7588 10.839 10.7588 10.604ZM11.8622 12.8841V11.9231C12.2732 12.084 12.4139 12.2311 12.4139 12.4661C12.4139 12.6336 12.19 12.8151 11.8622 12.8841Z" fill="#E1A546"/>
<path d="M3.86206 2.70597H4.9655C4.81316 2.70597 4.68962 2.58244 4.68962 2.43009V1.32666C4.68962 1.17431 4.81316 1.05078 4.9655 1.05078H1.37931C1.22697 1.05078 1.10344 1.17431 1.10344 1.32666V2.43009C1.10344 2.58244 1.22697 2.70597 1.37931 2.70597H0.275875C0.123531 2.70597 0 2.82947 0 2.98181V4.08525C0 4.23759 0.123531 4.36112 0.275875 4.36112H0.827594C0.67525 4.36112 0.551719 4.48466 0.551719 4.637V5.74044C0.551719 5.89278 0.67525 6.01631 0.827594 6.01631H0.275875C0.123531 6.01631 0 6.13984 0 6.29219V7.39563C0 7.54797 0.123531 7.6715 0.275875 7.6715H1.37931C1.22697 7.6715 1.10344 7.79503 1.10344 7.94737V9.05081C1.10344 9.20316 1.22697 9.32669 1.37931 9.32669H0.275875C0.123531 9.32669 0 9.45022 0 9.60256V10.706C0 10.8583 0.123531 10.9819 0.275875 10.9819H0.827594C0.67525 10.9819 0.551719 11.1054 0.551719 11.2578V12.3612C0.551719 12.5135 0.67525 12.6371 0.827594 12.6371H0.275875C0.123531 12.6371 0 12.7606 0 12.9129V14.0164C0 14.1687 0.123531 14.2922 0.275875 14.2922H1.37931C1.22697 14.2922 1.10344 14.4158 1.10344 14.5681V15.6716C1.10344 15.8239 1.22697 15.9474 1.37931 15.9474H4.96553C4.81319 15.9474 4.68966 15.8239 4.68966 15.6716V14.5681C4.68966 14.4158 4.81319 14.2922 4.96553 14.2922H3.86209C3.70975 14.2922 3.58622 14.1687 3.58622 14.0164V12.9129C3.58622 12.7606 3.70975 12.6371 3.86209 12.6371H4.41381C4.26147 12.6371 4.13794 12.5135 4.13794 12.3612V11.2578C4.13794 11.1054 4.26147 10.9819 4.41381 10.9819H3.86209C3.70975 10.9819 3.58622 10.8583 3.58622 10.706V9.60256C3.58622 9.45022 3.70975 9.32669 3.86209 9.32669H4.96553C4.81319 9.32669 4.68966 9.20316 4.68966 9.05081V7.94737C4.68966 7.79503 4.81319 7.6715 4.96553 7.6715H3.86209C3.70975 7.6715 3.58622 7.54797 3.58622 7.39563V6.29219C3.58622 6.13984 3.70975 6.01631 3.86209 6.01631H4.41381C4.26147 6.01631 4.13794 5.89278 4.13794 5.74044V4.637C4.13794 4.48466 4.26147 4.36112 4.41381 4.36112H3.86209C3.70975 4.36112 3.58622 4.23759 3.58622 4.08525V2.98181C3.58622 2.82947 3.70972 2.70597 3.86206 2.70597Z" fill="#FFC850"/>
<path d="M8.82759 2.70597H8.27588C8.12353 2.70597 8 2.58244 8 2.43009V1.32666C8 1.17431 8.12353 1.05078 8.27588 1.05078H8.82759C8.97994 1.05078 9.10347 1.17431 9.10347 1.32666V2.43009C9.10344 2.58244 8.97994 2.70597 8.82759 2.70597Z" fill="#FFF082"/>
</g>
<defs>
<clipPath id="clip0_6799_15790">
<rect width="16" height="16" fill="white" transform="translate(0 0.5)"/>
</clipPath>
</defs>
</svg>
