<svg width="165" height="221" viewBox="0 0 165 221" fill="none" xmlns="http://www.w3.org/2000/svg">
<path d="M209.27 102.685V96.4844C209.27 68.5633 166.859 47.5 110.613 47.5C54.368 47.5 11.957 68.5633 11.957 96.4844V141.016C11.957 164.272 41.3857 182.753 83.707 188.286V194.453C83.707 222.374 126.118 243.438 182.363 243.438C238.609 243.438 281.02 222.374 281.02 194.453V149.922C281.02 126.877 252.521 108.374 209.27 102.685ZM65.7695 166.476C43.8073 160.387 29.8945 150.356 29.8945 141.016V125.352C39.0427 131.787 51.2962 136.974 65.7695 140.459V166.476ZM155.457 140.459C169.93 136.974 182.184 131.787 191.332 125.352V141.016C191.332 150.356 177.419 160.387 155.457 166.476V140.459ZM137.52 219.914C115.557 213.824 101.645 203.794 101.645 194.453V189.811C104.593 189.922 107.575 190 110.613 190C114.963 190 119.212 189.855 123.383 189.61C128.016 191.257 132.735 192.655 137.52 193.796V219.914ZM137.52 170.239C128.611 171.546 119.618 172.197 110.613 172.188C101.608 172.197 92.6152 171.546 83.707 170.239V143.754C92.6285 144.908 101.616 145.481 110.613 145.469C119.61 145.481 128.598 144.908 137.52 143.754V170.239ZM209.27 223.677C191.427 226.274 173.299 226.274 155.457 223.677V197.125C164.376 198.315 173.365 198.911 182.363 198.906C191.36 198.918 200.348 198.345 209.27 197.192V223.677ZM263.082 194.453C263.082 203.794 249.169 213.824 227.207 219.914V193.896C241.68 190.412 253.934 185.224 263.082 178.789V194.453Z" fill="#00FFEE" fill-opacity="0.3"/>
</svg>
