<svg width="24" height="24" viewBox="0 0 24 24" fill="none" xmlns="http://www.w3.org/2000/svg">
<path d="M20.2692 7.7348L20.9742 11.8148C21.0156 12.0539 21.0042 12.2992 20.9409 12.5335C20.8776 12.7678 20.7638 12.9854 20.6076 13.1711C20.4514 13.3569 20.2565 13.5062 20.0366 13.6088C19.8166 13.7113 19.5769 13.7646 19.3342 13.7648H14.1532C14.0323 13.7648 13.9128 13.7911 13.8031 13.8419C13.6934 13.8927 13.596 13.9667 13.5178 14.0589C13.4396 14.1511 13.3824 14.2593 13.3502 14.3758C13.3179 14.4923 13.3115 14.6145 13.3312 14.7338L13.9942 18.7788C14.1013 19.4356 14.0707 20.1075 13.9042 20.7518C13.8324 21.0178 13.6947 21.2614 13.5038 21.4601C13.3129 21.6588 13.0751 21.8063 12.8122 21.8888L12.6672 21.9358C12.3393 22.0407 11.9838 22.0164 11.6732 21.8678C11.3332 21.7038 11.0852 21.4048 10.9932 21.0498L10.5172 19.2158C10.3659 18.6321 10.1457 18.0685 9.86123 17.5368C9.44623 16.7598 8.80423 16.1368 8.13623 15.5618L6.69723 14.3218C6.49759 14.1493 6.34168 13.9319 6.24225 13.6875C6.14283 13.4431 6.10272 13.1787 6.12523 12.9158L6.93723 3.5228C6.97301 3.10739 7.16327 2.7205 7.47042 2.43853C7.77756 2.15656 8.17928 2.00001 8.59623 1.9998H13.2442C16.7262 1.9998 19.6972 4.4258 20.2692 7.7348Z" fill="#F54D4D"/>
<path fill-rule="evenodd" clip-rule="evenodd" d="M2.96808 14.5149C3.16134 14.5234 3.35039 14.4568 3.49574 14.3292C3.64109 14.2015 3.7315 14.0226 3.74808 13.8299L4.71808 2.59391C4.73451 2.42659 4.71666 2.25767 4.66562 2.09748C4.61458 1.93729 4.53142 1.78919 4.42122 1.66221C4.31102 1.53524 4.17609 1.43206 4.02468 1.35898C3.87327 1.2859 3.70855 1.24446 3.54058 1.23717C3.37261 1.22989 3.20492 1.25693 3.04775 1.31663C2.89058 1.37633 2.74723 1.46744 2.62646 1.5844C2.50568 1.70136 2.41002 1.84171 2.3453 1.99688C2.28059 2.15206 2.24819 2.31879 2.25008 2.48691V13.7659C2.25016 13.9592 2.32488 14.145 2.45866 14.2846C2.59244 14.4242 2.77494 14.5067 2.96808 14.5149Z" fill="#F54D4D"/>
</svg>
