<svg width="24" height="24" viewBox="0 0 24 24" fill="none" xmlns="http://www.w3.org/2000/svg">
<path d="M20.2692 16.2652L20.9742 12.1852C21.0156 11.9461 21.0042 11.7008 20.9409 11.4665C20.8776 11.2322 20.7638 11.0146 20.6076 10.8289C20.4514 10.6431 20.2565 10.4938 20.0366 10.3912C19.8166 10.2887 19.5769 10.2354 19.3342 10.2352H14.1532C14.0323 10.2352 13.9128 10.2089 13.8031 10.1581C13.6934 10.1073 13.596 10.0333 13.5178 9.94106C13.4396 9.84886 13.3824 9.74073 13.3502 9.62419C13.3179 9.50765 13.3115 9.38549 13.3312 9.2662L13.9942 5.2212C14.1013 4.56441 14.0707 3.89252 13.9042 3.2482C13.8324 2.98221 13.6947 2.73861 13.5038 2.53989C13.3129 2.34117 13.0751 2.19373 12.8122 2.1112L12.6672 2.0642C12.3393 1.9593 11.9838 1.98363 11.6732 2.1322C11.3332 2.2962 11.0852 2.5952 10.9932 2.9502L10.5172 4.7842C10.3659 5.36791 10.1457 5.93154 9.86123 6.4632C9.44623 7.2402 8.80423 7.8632 8.13623 8.4382L6.69723 9.6782C6.49759 9.85071 6.34168 10.0681 6.24225 10.3125C6.14283 10.5569 6.10272 10.8213 6.12523 11.0842L6.93723 20.4772C6.97301 20.8926 7.16327 21.2795 7.47042 21.5615C7.77756 21.8434 8.17928 22 8.59623 22.0002H13.2442C16.7262 22.0002 19.6972 19.5742 20.2692 16.2652Z" fill="#24C16C"/>
<path fill-rule="evenodd" clip-rule="evenodd" d="M2.96808 9.48509C3.16134 9.47664 3.35039 9.54319 3.49574 9.67084C3.64109 9.79849 3.7315 9.97736 3.74808 10.1701L4.71808 21.4061C4.73451 21.5734 4.71666 21.7423 4.66562 21.9025C4.61458 22.0627 4.53142 22.2108 4.42122 22.3378C4.31102 22.4648 4.17609 22.5679 4.02468 22.641C3.87327 22.7141 3.70855 22.7555 3.54058 22.7628C3.37261 22.7701 3.20492 22.7431 3.04775 22.6834C2.89058 22.6237 2.74723 22.5326 2.62646 22.4156C2.50568 22.2986 2.41002 22.1583 2.3453 22.0031C2.28059 21.8479 2.24819 21.6812 2.25008 21.5131V10.2341C2.25016 10.0408 2.32488 9.85495 2.45866 9.7154C2.59244 9.57585 2.77494 9.49334 2.96808 9.48509Z" fill="#24C16C"/>
</svg>
