<svg width="64" height="64" viewBox="0 0 64 64" fill="none" xmlns="http://www.w3.org/2000/svg">
<path fill-rule="evenodd" clip-rule="evenodd" d="M4 17C4 14.2373 6.24 12 9 12H55C57.76 12 60 14.24 60 17V25.0693C60.0002 25.4206 59.9079 25.7658 59.7324 26.0701C59.5568 26.3743 59.3042 26.627 59 26.8027C58.0867 27.3286 57.328 28.0859 56.8005 28.9983C56.273 29.9107 55.9953 30.9461 55.9953 32C55.9953 33.0539 56.273 34.0893 56.8005 35.0017C57.328 35.9141 58.0867 36.6714 59 37.1973C59.3042 37.373 59.5568 37.6257 59.7324 37.9299C59.9079 38.2342 60.0002 38.5794 60 38.9307V47C60 49.76 57.76 52 55 52H9C7.67392 52 6.40215 51.4732 5.46447 50.5355C4.52679 49.5979 4 48.3261 4 47V38.9307C3.99951 38.5796 4.09141 38.2347 4.26648 37.9304C4.44154 37.6261 4.6936 37.3733 4.99734 37.1973C5.91068 36.6714 6.66932 35.9141 7.19682 35.0017C7.72432 34.0893 8.00206 33.0539 8.00206 32C8.00206 30.9461 7.72432 29.9107 7.19682 28.9983C6.66932 28.0859 5.91068 27.3286 4.99734 26.8027C4.6936 26.6267 4.44154 26.3739 4.26648 26.0696C4.09141 25.7653 3.99951 25.4204 4 25.0693V17ZM44 14C44.5304 14 45.0391 14.2107 45.4142 14.5858C45.7893 14.9609 46 15.4696 46 16V18C46 18.5304 45.7893 19.0391 45.4142 19.4142C45.0391 19.7893 44.5304 20 44 20C43.4696 20 42.9609 19.7893 42.5858 19.4142C42.2107 19.0391 42 18.5304 42 18V16C42 15.4696 42.2107 14.9609 42.5858 14.5858C42.9609 14.2107 43.4696 14 44 14ZM46 26C46 25.4696 45.7893 24.9609 45.4142 24.5858C45.0391 24.2107 44.5304 24 44 24C43.4696 24 42.9609 24.2107 42.5858 24.5858C42.2107 24.9609 42 25.4696 42 26V28C42 28.5304 42.2107 29.0391 42.5858 29.4142C42.9609 29.7893 43.4696 30 44 30C44.5304 30 45.0391 29.7893 45.4142 29.4142C45.7893 29.0391 46 28.5304 46 28V26ZM44 34C44.5304 34 45.0391 34.2107 45.4142 34.5858C45.7893 34.9609 46 35.4696 46 36V38C46 38.5304 45.7893 39.0391 45.4142 39.4142C45.0391 39.7893 44.5304 40 44 40C43.4696 40 42.9609 39.7893 42.5858 39.4142C42.2107 39.0391 42 38.5304 42 38V36C42 35.4696 42.2107 34.9609 42.5858 34.5858C42.9609 34.2107 43.4696 34 44 34ZM46 46C46 45.4696 45.7893 44.9609 45.4142 44.5858C45.0391 44.2107 44.5304 44 44 44C43.4696 44 42.9609 44.2107 42.5858 44.5858C42.2107 44.9609 42 45.4696 42 46V48C42 48.5304 42.2107 49.0391 42.5858 49.4142C42.9609 49.7893 43.4696 50 44 50C44.5304 50 45.0391 49.7893 45.4142 49.4142C45.7893 49.0391 46 48.5304 46 48V46ZM16 32C16 31.4696 16.2107 30.9609 16.5858 30.5858C16.9609 30.2107 17.4696 30 18 30H32C32.5304 30 33.0391 30.2107 33.4142 30.5858C33.7893 30.9609 34 31.4696 34 32C34 32.5304 33.7893 33.0391 33.4142 33.4142C33.0391 33.7893 32.5304 34 32 34H18C17.4696 34 16.9609 33.7893 16.5858 33.4142C16.2107 33.0391 16 32.5304 16 32ZM18 38C17.4696 38 16.9609 38.2107 16.5858 38.5858C16.2107 38.9609 16 39.4696 16 40C16 40.5304 16.2107 41.0391 16.5858 41.4142C16.9609 41.7893 17.4696 42 18 42H26C26.5304 42 27.0391 41.7893 27.4142 41.4142C27.7893 41.0391 28 40.5304 28 40C28 39.4696 27.7893 38.9609 27.4142 38.5858C27.0391 38.2107 26.5304 38 26 38H18Z" fill="white"/>
</svg>
